<svg xmlns="http://www.w3.org/2000/svg" viewBox="0 0 1200 1500" width="1200" height="1500" preserveAspectRatio="xMidYMid slice" role="img" aria-label="Ink twill"><defs><linearGradient id="ljfn" x1="0" y1="0" x2="0" y2="1"><stop offset="0" stop-color="#605c58"/><stop offset="1" stop-color="#2E2C2A"/></linearGradient><radialGradient id="vjfn" cx="0.5" cy="0.42" r="0.85"><stop offset="0.2" stop-color="#2E2C2A" stop-opacity="0"/><stop offset="1" stop-color="#2E2C2A" stop-opacity="0.2"/></radialGradient><filter id="gjfn" x="0" y="0" width="100%" height="100%"><feTurbulence type="fractalNoise" baseFrequency="0.11" numOctaves="2" seed="35" stitchTiles="stitch"/><feColorMatrix type="saturate" values="0"/><feComponentTransfer><feFuncR type="linear" slope="0.5" intercept="0.5"/><feFuncG type="linear" slope="0.5" intercept="0.5"/><feFuncB type="linear" slope="0.5" intercept="0.5"/><feFuncA type="linear" slope="0" intercept="1"/></feComponentTransfer></filter></defs><rect width="1200" height="1500" fill="#403d3a"/><rect width="1200" height="1500" fill="url(#ljfn)"/><g fill="none" stroke-linecap="butt"><path d="M-1485.1 0L14.9 1500M-1468.7 0L31.3 1500M-1453.3 0L46.7 1500M-1419.2 0L80.8 1500M-1402.3 0L97.7 1500M-1390.2 0L109.8 1500M-1356.5 0L143.5 1500M-1338.2 0L161.8 1500M-1322.3 0L177.7 1500M-1293.1 0L206.9 1500M-1273.8 0L226.2 1500M-1260.2 0L239.8 1500M-1229.2 0L270.8 1500M-1211.2 0L288.8 1500M-1197 0L303 1500M-1164.8 0L335.2 1500M-1150.3 0L349.7 1500M-1131.8 0L368.2 1500M-1100.3 0L399.7 1500M-1084.5 0L415.5 1500M-1069.5 0L430.5 1500M-1037.2 0L462.8 1500M-1020.2 0L479.8 1500M-1004.7 0L495.3 1500M-973.7 0L526.3 1500M-956.4 0L543.6 1500M-942.1 0L557.9 1500M-907.6 0L592.4 1500M-890 0L610 1500M-873.8 0L626.2 1500M-842.1 0L657.9 1500M-830.2 0L669.8 1500M-811.9 0L688.1 1500M-782 0L718 1500M-766.3 0L733.7 1500M-745.6 0L754.4 1500M-718.3 0L781.7 1500M-698.2 0L801.8 1500M-685.4 0L814.6 1500M-652.7 0L847.3 1500M-636.6 0L863.4 1500M-619.8 0L880.2 1500M-590.2 0L909.8 1500M-572.4 0L927.6 1500M-557.8 0L942.2 1500M-526.2 0L973.8 1500M-506.3 0L993.7 1500M-491 0L1009 1500M-457.9 0L1042.1 1500M-442.3 0L1057.7 1500M-427.8 0L1072.2 1500M-394.1 0L1105.9 1500M-379.8 0L1120.2 1500M-363.6 0L1136.4 1500M-333.1 0L1166.9 1500M-316.1 0L1183.9 1500M-298.9 0L1201.1 1500M-269.2 0L1230.8 1500M-253.8 0L1246.2 1500M-234.5 0L1265.5 1500M-202.1 0L1297.9 1500M-188.5 0L1311.5 1500M-173.5 0L1326.5 1500M-139.8 0L1360.2 1500M-124.9 0L1375.1 1500M-106 0L1394 1500M-77.2 0L1422.8 1500M-61.9 0L1438.1 1500M-44.6 0L1455.4 1500M-13.5 0L1486.5 1500M4 0L1504 1500M19.7 0L1519.7 1500M53.7 0L1553.7 1500M68.1 0L1568.1 1500M84.6 0L1584.6 1500M115.3 0L1615.3 1500M131.8 0L1631.8 1500M147.9 0L1647.9 1500M177.7 0L1677.7 1500M194.6 0L1694.6 1500M213.4 0L1713.4 1500M241.7 0L1741.7 1500M260.9 0L1760.9 1500M274.3 0L1774.3 1500M306.9 0L1806.9 1500M325.6 0L1825.6 1500M337.8 0L1837.8 1500M373.9 0L1873.9 1500M388.2 0L1888.2 1500M406.4 0L1906.4 1500M435.5 0L1935.5 1500M451.9 0L1951.9 1500M469.4 0L1969.4 1500M501.7 0L2001.7 1500M514.4 0L2014.4 1500M529.9 0L2029.9 1500M565.3 0L2065.3 1500M582 0L2082 1500M594 0L2094 1500M626.7 0L2126.7 1500M644.9 0L2144.9 1500M658.3 0L2158.3 1500M692.7 0L2192.7 1500M706.5 0L2206.5 1500M724.2 0L2224.2 1500M754.8 0L2254.8 1500M773.6 0L2273.6 1500M785.9 0L2285.9 1500M819.4 0L2319.4 1500M837.2 0L2337.2 1500M850.5 0L2350.5 1500M884.3 0L2384.3 1500M899.6 0L2399.6 1500M916.5 0L2416.5 1500M948.8 0L2448.8 1500M965.7 0L2465.7 1500M979.9 0L2479.9 1500M1012.2 0L2512.2 1500M1028.9 0L2528.9 1500M1045.9 0L2545.9 1500M1076.4 0L2576.4 1500M1090.5 0L2590.5 1500M1108.2 0L2608.2 1500M1139.3 0L2639.3 1500M1155.7 0L2655.7 1500M1172.1 0L2672.1 1500M1202.3 0L2702.3 1500M1221.6 0L2721.6 1500M1237.3 0L2737.3 1500M1268 0L2768 1500M1282.1 0L2782.1 1500M1302.2 0L2802.2 1500M1332.2 0L2832.2 1500M1346.3 0L2846.3 1500M1365 0L2865 1500M1393.8 0L2893.8 1500M1410.5 0L2910.5 1500M1429.4 0L2929.4 1500M1462.1 0L2962.1 1500M1477.1 0L2977.1 1500M1492.3 0L2992.3 1500M1523.4 0L3023.4 1500M1538.6 0L3038.6 1500M1555 0L3055 1500M1589.6 0L3089.6 1500M1605.3 0L3105.3 1500M1618.2 0L3118.2 1500M1650.2 0L3150.2 1500M1669.7 0L3169.7 1500M1682.5 0L3182.5 1500M1717.2 0L3217.2 1500M1732.9 0L3232.9 1500M1747.1 0L3247.1 1500M1778.2 0L3278.2 1500M1797.4 0L3297.4 1500M1810 0L3310 1500M1843.2 0L3343.2 1500M1858.5 0L3358.5 1500M1876.2 0L3376.2 1500M1907 0L3407 1500M1926.3 0L3426.3 1500M1939.2 0L3439.2 1500M1972.1 0L3472.1 1500M1989.6 0L3489.6 1500M2003.9 0L3503.9 1500M2037.9 0L3537.9 1500M2053.6 0L3553.6 1500M2068.2 0L3568.2 1500M2098.2 0L3598.2 1500M2114.8 0L3614.8 1500M2133 0L3633 1500M2164.1 0L3664.1 1500M2179.9 0L3679.9 1500M2196.7 0L3696.7 1500M2228 0L3728 1500M2244.9 0L3744.9 1500M2259.7 0L3759.7 1500M2290.9 0L3790.9 1500M2308.3 0L3808.3 1500M2322.7 0L3822.7 1500M2357.4 0L3857.4 1500M2370 0L3870 1500M2388.5 0L3888.5 1500M2418.7 0L3918.7 1500M2434.9 0L3934.9 1500M2452.2 0L3952.2 1500M2482.9 0L3982.9 1500M2500.1 0L4000.1 1500M2514.3 0L4014.3 1500M2545.7 0L4045.7 1500M2566.3 0L4066.3 1500M2579.4 0L4079.4 1500M2612.8 0L4112.8 1500M2630.1 0L4130.1 1500M2644.3 0L4144.3 1500M2673.8 0L4173.8 1500M2691.9 0L4191.9 1500" stroke="#F4F1EC" stroke-width="2" opacity="0.08"/><path d="M-1499.4 0L0.6 1500M-1437.7 0L62.3 1500M-1370.2 0L129.8 1500M-1308.5 0L191.5 1500M-1244.1 0L255.9 1500M-1181.2 0L318.8 1500M-1113.9 0L386.1 1500M-1049.7 0L450.3 1500M-987.5 0L512.5 1500M-922.7 0L577.3 1500M-859.8 0L640.2 1500M-795.3 0L704.7 1500M-732.5 0L767.5 1500M-666.2 0L833.8 1500M-601.9 0L898.1 1500M-541.3 0L958.7 1500M-474.1 0L1025.9 1500M-412.9 0L1087.1 1500M-347.4 0L1152.6 1500M-285.7 0L1214.3 1500M-221.4 0L1278.6 1500M-158.4 0L1341.6 1500M-91.6 0L1408.4 1500M-26.7 0L1473.3 1500M38.2 0L1538.2 1500M100.7 0L1600.7 1500M162.2 0L1662.2 1500M230.2 0L1730.2 1500M293 0L1793 1500M354.5 0L1854.5 1500M420.8 0L1920.8 1500M482 0L1982 1500M548.1 0L2048.1 1500M611.7 0L2111.7 1500M673.7 0L2173.7 1500M742.3 0L2242.3 1500M802.1 0L2302.1 1500M866.3 0L2366.3 1500M933.7 0L2433.7 1500M994.3 0L2494.3 1500M1061.1 0L2561.1 1500M1122.2 0L2622.2 1500M1190.3 0L2690.3 1500M1253 0L2753 1500M1313.9 0L2813.9 1500M1380 0L2880 1500M1444.7 0L2944.7 1500M1508.2 0L3008.2 1500M1569.9 0L3069.9 1500M1633.6 0L3133.6 1500M1699.1 0L3199.1 1500M1763.6 0L3263.6 1500M1827.3 0L3327.3 1500M1892.9 0L3392.9 1500M1954.8 0L3454.8 1500M2022.2 0L3522.2 1500M2084.3 0L3584.3 1500M2146.5 0L3646.5 1500M2214.1 0L3714.1 1500M2276.5 0L3776.5 1500M2340.4 0L3840.4 1500M2405.3 0L3905.3 1500M2470 0L3970 1500M2530.6 0L4030.6 1500M2594.5 0L4094.5 1500M2661.6 0L4161.6 1500" stroke="#F4F1EC" stroke-width="4" opacity="0.14"/></g><rect width="1200" height="1500" fill="url(#vjfn)"/><rect width="1200" height="1500" filter="url(#gjfn)" opacity="0.4" style="mix-blend-mode:multiply"/></svg>
